<svg width="73" height="73" viewBox="0 0 73 73" fill="none" xmlns="http://www.w3.org/2000/svg">
<path d="M25.231 57.5318C26.4239 56.339 28.259 56.339 29.4518 57.5318L34.4067 62.4867C35.5996 63.6796 37.4347 63.6796 38.6276 62.4867L43.766 57.3483C44.9588 56.1555 44.9588 54.3203 43.766 53.1275L-0.0022583 9.35924L9.35699 0L53.1252 43.7682C54.3181 44.9611 56.1532 44.9611 57.3461 43.7682L62.4845 38.6298C63.6773 37.437 63.6773 35.6018 62.4845 34.409L57.5296 29.4541C56.3367 28.2613 56.3367 26.4261 57.5296 25.2333L62.668 20.0949C63.8608 18.902 63.8608 17.0669 62.668 15.874L57.7131 10.9191C56.5203 9.72627 56.5203 7.89113 57.7131 6.69828L62.8515 1.55987C64.0444 0.367027 65.8795 0.367029 67.0723 1.55988L72.0272 6.51477C73.2201 7.70762 73.2201 9.54276 72.0272 10.7356L66.8888 15.874C65.696 17.0669 65.696 18.902 66.8888 20.0949L71.8437 25.0497C73.0366 26.2426 73.0366 28.0777 71.8437 29.2706L66.7053 34.409C65.5125 35.6018 65.5125 37.437 66.7053 38.6298L71.6602 43.5847C72.8531 44.7776 72.8531 46.6127 71.6602 47.8056L66.5218 52.944C65.329 54.1368 65.329 55.972 66.5218 57.1648L71.4767 62.1197C72.6695 63.3126 72.6695 65.1477 71.4767 66.3405L66.3383 71.479C65.1454 72.6718 63.3103 72.6718 62.1175 71.479L57.1626 66.5241C55.9697 65.3312 54.1346 65.3312 52.9417 66.5241L47.8033 71.6625C46.6105 72.8553 44.7753 72.8553 43.5825 71.6625L38.6276 66.7076C37.4347 65.5147 35.5996 65.5147 34.4067 66.7076L29.2683 71.846C28.0755 73.0388 26.2403 73.0388 25.0475 71.846L20.0926 66.8911C18.8997 65.6982 17.0646 65.6982 15.8718 66.8911L10.7333 72.0295C9.5405 73.2223 7.70536 73.2223 6.51251 72.0295L1.55762 67.0746C0.364769 65.8818 0.364777 64.0466 1.55762 62.8538L6.69603 57.7154C7.88888 56.5225 9.72402 56.5225 10.9169 57.7154L15.8718 62.6702C17.0646 63.8631 18.8997 63.8631 20.0926 62.6702L25.231 57.5318ZM52.9417 62.3032C54.1346 63.4961 55.9697 63.4961 57.1626 62.3032L62.301 57.1648C63.4938 55.972 63.4938 54.1368 62.301 52.944L57.3461 47.9891C56.1532 46.7962 54.3181 46.7962 53.1252 47.9891L47.9868 53.1275C46.794 54.3203 46.794 56.1555 47.9868 57.3483L52.9417 62.3032Z" fill="#EAEBE0"/>
</svg>
